<?xml version="1.0" standalone="no"?><svg xmlns="http://www.w3.org/2000/svg" viewBox="0 0 1440 320"><path fill="#f3f4f5" fill-opacity="0.7" d="M0,320L17.1,288C34.3,256,69,192,103,186.7C137.1,181,171,235,206,224C240,213,274,139,309,128C342.9,117,377,171,411,192C445.7,213,480,203,514,202.7C548.6,203,583,213,617,186.7C651.4,160,686,96,720,80C754.3,64,789,96,823,138.7C857.1,181,891,235,926,256C960,277,994,267,1029,229.3C1062.9,192,1097,128,1131,133.3C1165.7,139,1200,213,1234,245.3C1268.6,277,1303,267,1337,261.3C1371.4,256,1406,256,1423,256L1440,256L1440,320L1422.9,320C1405.7,320,1371,320,1337,320C1302.9,320,1269,320,1234,320C1200,320,1166,320,1131,320C1097.1,320,1063,320,1029,320C994.3,320,960,320,926,320C891.4,320,857,320,823,320C788.6,320,754,320,720,320C685.7,320,651,320,617,320C582.9,320,549,320,514,320C480,320,446,320,411,320C377.1,320,343,320,309,320C274.3,320,240,320,206,320C171.4,320,137,320,103,320C68.6,320,34,320,17,320L0,320Z"></path></svg>